<svg width="17" height="19" viewBox="0 0 17 19" fill="none" xmlns="http://www.w3.org/2000/svg">
<path d="M11.8064 18.4H4.32641C3.08641 18.4 2.06641 17.38 2.06641 16.14V5.99999C2.06641 5.77999 2.24641 5.59999 2.46641 5.59999H13.6664C13.8864 5.59999 14.0664 5.77999 14.0664 5.99999V16.14C14.0664 17.38 13.0464 18.4 11.8064 18.4ZM2.86641 6.39999V16.14C2.86641 16.94 3.52641 17.6 4.32641 17.6H11.7864C12.5864 17.6 13.2464 16.94 13.2464 16.14V6.39999H2.86641ZM15.6664 3.97999H0.466406C0.246406 3.97999 0.0664062 3.79999 0.0664062 3.57999C0.0664062 3.35999 0.246406 3.17999 0.466406 3.17999H15.6664C15.8864 3.17999 16.0664 3.35999 16.0664 3.57999C16.0664 3.79999 15.8864 3.97999 15.6664 3.97999Z" fill="#ffffff"/>
<path d="M15.6664 6.38H0.466406C0.246406 6.38 0.0664062 6.2 0.0664062 5.98C0.0664062 5.76 0.246406 5.58 0.466406 5.58H15.6664C15.8864 5.58 16.0664 5.76 16.0664 5.98C16.0664 6.2 15.8864 6.38 15.6664 6.38ZM10.4664 4H5.66641C5.44641 4 5.26641 3.82 5.26641 3.6V2.4C5.26641 1.08 6.34641 0 7.66641 0H8.46641C9.78641 0 10.8664 1.08 10.8664 2.4V3.6C10.8664 3.82 10.6864 4 10.4664 4ZM6.06641 3.2H10.0664V2.4C10.0664 1.52 9.34641 0.8 8.46641 0.8H7.66641C6.78641 0.8 6.06641 1.52 6.06641 2.4V3.2ZM5.74641 15.6C5.52641 15.6 5.34641 15.42 5.34641 15.2V8.8C5.34641 8.58 5.52641 8.4 5.74641 8.4C5.96641 8.4 6.14641 8.58 6.14641 8.8V15.2C6.14641 15.42 5.96641 15.6 5.74641 15.6ZM8.14641 15.6C7.92641 15.6 7.74641 15.42 7.74641 15.2V8.8C7.74641 8.58 7.92641 8.4 8.14641 8.4C8.36641 8.4 8.54641 8.58 8.54641 8.8V15.2C8.54641 15.42 8.36641 15.6 8.14641 15.6ZM10.5464 15.6C10.3264 15.6 10.1464 15.42 10.1464 15.2V8.8C10.1464 8.58 10.3264 8.4 10.5464 8.4C10.7664 8.4 10.9464 8.58 10.9464 8.8V15.2C10.9464 15.42 10.7664 15.6 10.5464 15.6Z" fill="#ffffff"/>
</svg>