<svg width="19" height="18" viewBox="0 0 19 18" fill="none" xmlns="http://www.w3.org/2000/svg">
<path d="M0.283203 0.260376H13.0837C13.2401 0.260376 13.3669 0.38718 13.3669 0.543579V8.96742L12.8005 8.40101V0.826781H0.566405V16.5175H12.8005V13.2219L13.3669 13.7883V16.8007C13.3669 16.9571 13.2401 17.0839 13.0837 17.0839H0.283203C0.126804 17.0839 0 16.9571 0 16.8007V0.543579C0 0.38718 0.126804 0.260376 0.283203 0.260376Z" fill="#ffffff"/>
<path d="M2.52148 8.58189H8.61071L8.72734 8.90368L8.72659 8.90391L8.8152 9.14829H2.52148V8.58189Z" fill="#ffffff"/>
<path d="M2.52148 11.0317H10.6104L10.8455 11.2669V11.5981H2.52148V11.0317Z" fill="#ffffff"/>
<path d="M2.52148 13.4815H10.8455V14.0479H2.52148V13.4815Z" fill="#ffffff"/>
<path d="M2.52148 5.93912H8.19899C8.06813 6.00069 7.96065 6.11201 7.90756 6.25857C7.87823 6.3396 7.86978 6.42297 7.87839 6.50552H2.5215L2.52148 5.93912Z" fill="#ffffff"/>
<path d="M2.52148 3.29634H10.8455V3.86275H2.52148V3.29634Z" fill="#ffffff"/>
<path d="M9.15577 8.77401L10.7642 7.16554L10.7642 7.16552C10.8748 7.05493 11.0541 7.05493 11.1647 7.16552L11.1657 7.16656L18.0421 14.0429C18.1527 14.1535 18.1527 14.3328 18.0421 14.4434L18.0411 14.4444L16.4326 16.0529H16.4326C16.322 16.1635 16.1427 16.1635 16.0321 16.0529L16.0311 16.0519L9.15474 9.17551L9.15472 9.17552C9.04413 9.06493 9.04413 8.88561 9.15472 8.77502L9.15577 8.77401ZM10.9645 7.76624L9.75544 8.97528L16.2324 15.4522L17.4414 14.2432L10.9645 7.76624Z" fill="#6cb443"/>
<path d="M9.46875 8.46093L10.4498 7.47983L8.91111 6.92249L9.46875 8.46093ZM11.1646 7.56607L9.55961 9.171C9.52947 9.2026 9.4924 9.22676 9.45133 9.24159C9.3043 9.29489 9.14186 9.21889 9.08856 9.07185L9.08931 9.07157L8.18155 6.56723C8.15143 6.50021 8.14862 6.4241 8.17373 6.35505C8.22698 6.208 8.38939 6.13197 8.53644 6.18522L8.43999 6.45149L8.53624 6.18599L11.0403 7.093C11.0873 7.10604 11.1301 7.13105 11.1646 7.16559C11.2752 7.27618 11.2752 7.45549 11.1646 7.56608L11.1646 7.56607Z" fill="#6cb443"/>
</svg>